#!OML:ASF G:\JayActor3\Patient Classification 1\Patient 1\Session 6\male.ASF
:FULLY-SPECIFIED
:DEGREES
1358
root 11.3374 15.8343 -3.04758 30.8814 -57.6785 5.93226
lowerback 39.0172 -0.41958 8.88451
upperback 2.69028 3.11569 0.877344
thorax -15.8156 0.644935 -5.09576
lowerneck -5.14974 6.58136 6.6368
upperneck -22.5698 4.11861 -27.6604
head -4.70322 3.02307 -10.4753
rclavicle 4.13472e-014 4.05521e-014
rhumerus 27.3527 -5.49996 -81.5917
rradius 55.9543
rwrist 22.3044
rhand -60.9454 21.7614
rfingers 7.12502
rthumb -33.0514 -5.22797
lclavicle 4.13472e-014 4.05521e-014
lhumerus -17.3648 2.47322 90.1754
lradius 84.0437
lwrist -8.8827
lhand -50.3607 -30.7926
lfingers 7.12502
lthumb -22.9352 -2.13682
rfemur -76.1133 -9.3083 27.345
rtibia 54.8498
rfoot -17.227 -9.41623
rtoes 13.3028
lfemur -66.3338 3.87489 -29.0936
ltibia 42.5823
lfoot -11.2593 -3.82783
ltoes 4.55622
1359
root 11.3362 15.825 -3.05163 30.9964 -57.6519 5.95062
lowerback 39.0797 -0.393772 8.92208
upperback 2.72446 3.16855 0.898687
thorax -15.7887 0.666572 -5.11441
lowerneck -5.17204 6.51729 6.58507
upperneck -22.561 4.03634 -27.594
head -4.71839 2.98064 -10.4425
rclavicle 3.65764e-014 -2.38542e-014
rhumerus 27.55 -5.39327 -81.411
rradius 55.8672
rwrist 22.3317
rhand -60.9958 21.8769
rfingers 7.12502
rthumb -33.0994 -5.10229
lclavicle 3.65764e-014 -2.38542e-014
lhumerus -17.5533 2.41161 90.1461
lradius 84.1148
lwrist -8.99861
lhand -50.3889 -31.1193
lfingers 7.12502
lthumb -22.9624 -2.46681
rfemur -76.3548 -9.32389 27.4041
rtibia 54.9889
rfoot -17.2486 -9.38853
rtoes 13.301
lfemur -66.5821 3.81285 -29.0743
ltibia 42.7557
lfoot -11.3057 -3.81896
ltoes 4.64748
1360
root 11.335 15.815 -3.05564 31.1001 -57.6226 5.98366
lowerback 39.15 -0.36794 8.95726
upperback 2.75524 3.22219 0.923468
thorax -15.7689 0.688277 -5.12857
lowerneck -5.20423 6.45768 6.53557
upperneck -22.5347 3.96164 -27.5449
head -4.72383 2.94126 -10.4146
rclavicle 1.59028e-014 6.2816e-014
rhumerus 27.7519 -5.29815 -81.2313
rradius 55.7674
rwrist 22.3815
rhand -61.0797 22.0027
rfingers 7.12502
rthumb -33.1791 -4.95958
lclavicle 1.59028e-014 6.2816e-014
lhumerus -17.7566 2.35337 90.1156
lradius 84.1826
lwrist -9.13404
lhand -50.4409 -31.4309
lfingers 7.12502
lthumb -23.0122 -2.78471
rfemur -76.6106 -9.36351 27.4743
rtibia 55.1366
rfoot -17.259 -9.34031
rtoes 13.2946
lfemur -66.8347 3.7392 -29.0584
ltibia 42.9343
lfoot -11.3515 -3.80142
ltoes 4.72742
1361
root 11.334 15.805 -3.0596 31.1838 -57.5896 6.03159
lowerback 39.2369 -0.34433 8.99186
upperback 2.78367 3.27528 0.951668
thorax -15.7584 0.709188 -5.13867
lowerneck -5.23372 6.40047 6.49139
upperneck -22.5029 3.88942 -27.511
head -4.72648 2.90349 -10.393
rclavicle -5.24792e-014 -9.14409e-014
rhumerus 27.9617 -5.21441 -81.0543
rradius 55.6543
rwrist 22.441
rhand -61.1727 22.1459
rfingers 7.12502
rthumb -33.2675 -4.79745
lclavicle -5.24792e-014 -9.14409e-014
lhumerus -17.9744 2.29493 90.0862
lradius 84.2503
lwrist -9.27768
lhand -50.5286 -31.7482
lfingers 7.12502
lthumb -23.0964 -3.11247
rfemur -76.8647 -9.41441 27.5389
rtibia 55.293
rfoot -17.2715 -9.287
rtoes 13.2854
lfemur -67.0796 3.65363 -29.0443
ltibia 43.1171
lfoot -11.4004 -3.77557
ltoes 4.8057
1362
root 11.3335 15.7941 -3.06344 31.2633 -57.5499 6.08683
lowerback 39.3239 -0.323123 9.02996
upperback 2.81023 3.32788 0.984117
thorax -15.75 0.729614 -5.14568
lowerneck -5.26092 6.34425 6.44119
upperneck -22.4695 3.81888 -27.4784
head -4.72887 2.86719 -10.3706
rclavicle 0 -1.74931e-014
rhumerus 28.1807 -5.13153 -80.871
rradius 55.5297
rwrist 22.4778
rhand -61.2443 22.2241
rfingers 7.12502
rthumb -33.3356 -4.70466
lclavicle 0 -1.74931e-014
lhumerus -18.209 2.22908 90.0576
lradius 84.3344
lwrist -9.41034
lhand -50.6717 -31.9726
lfingers 7.12502
lthumb -23.2336 -3.35412
rfemur -77.1349 -9.48361 27.6142
rtibia 55.4637
rfoot -17.2824 -9.21899
rtoes 13.2717
lfemur -67.334 3.55447 -29.0277
ltibia 43.3119
lfoot -11.4537 -3.74203
ltoes 4.8764
1363
root 11.3337 15.7825 -3.06694 31.3587 -57.497 6.13319
lowerback 39.3998 -0.3091 9.08601
upperback 2.8348 3.3792 1.02096
thorax -15.739 0.748657 -5.15635
lowerneck -5.27994 6.28658 6.38518
upperneck -22.4417 3.74625 -27.4382
head -4.73548 2.83074 -10.345
rclavicle -2.22639e-014 -3.81667e-014
rhumerus 28.4085 -5.04644 -80.6791
rradius 55.3922
rwrist 22.4819
rhand -61.2932 22.2585
rfingers 7.12502
rthumb -33.3821 -4.66029
lclavicle -2.22639e-014 -3.81667e-014
lhumerus -18.4629 2.1592 90.0283
lradius 84.4405
lwrist -9.52099
lhand -50.8676 -32.078
lfingers 7.12502
lthumb -23.4216 -3.48333
rfemur -77.4248 -9.56817 27.7096
rtibia 55.646
rfoot -17.2926 -9.13892
rtoes 13.2704
lfemur -67.606 3.4418 -28.9994
ltibia 43.5182
lfoot -11.5085 -3.70683
ltoes 4.95281
1364
root 11.3345 15.7701 -3.07012 31.4795 -57.4366 6.16795
lowerback 39.4527 -0.297766 9.1556
upperback 2.85826 3.43137 1.06036
thorax -15.7198 0.767886 -5.17122
lowerneck -5.29314 6.22549 6.32404
upperneck -22.4197 3.66939 -27.3852
head -4.74653 2.79254 -10.3144
rclavicle -1.43125e-014 -3.18055e-015
rhumerus 28.6431 -4.96552 -80.485
rradius 55.2436
rwrist 22.4653
rhand -61.2939 22.3049
rfingers 7.12502
rthumb -33.3828 -4.61373
lclavicle -1.43125e-014 -3.18055e-015
lhumerus -18.7341 2.08305 89.9968
lradius 84.5712
lwrist -9.6008
lhand -51.0877 -32.1083
lfingers 7.12502
lthumb -23.6327 -3.5408
rfemur -77.7423 -9.65952 27.8252
rtibia 55.8422
rfoot -17.3037 -9.05105
rtoes 13.2655
lfemur -67.9066 3.32457 -28.9649
ltibia 43.7407
lfoot -11.5669 -3.67379
ltoes 4.9989
1365
root 11.3356 15.757 -3.07316 31.6229 -57.3746 6.20142
lowerback 39.4738 -0.284492 9.22831
upperback 2.88065 3.48431 1.09911
thorax -15.6899 0.788118 -5.18836
lowerneck -5.30643 6.15968 6.25157
upperneck -22.3983 3.58918 -27.3087
head -4.75994 2.75224 -10.273
rclavicle -1.59028e-015 2.8625e-014
rhumerus 28.8806 -4.89367 -80.2964
rradius 55.0867
rwrist 22.4486
rhand -61.2785 22.3344
rfingers 7.12502
rthumb -33.3681 -4.58738
lclavicle -1.59028e-015 2.8625e-014
lhumerus -19.0173 2.01421 89.9643
lradius 84.7196
lwrist -9.65773
lhand -51.2976 -32.0964
lfingers 7.12502
lthumb -23.834 -3.55495
rfemur -78.0917 -9.74572 27.9455
rtibia 56.0514
rfoot -17.3189 -8.96531
rtoes 13.2708
lfemur -68.2406 3.20794 -28.9355
ltibia 43.9761
lfoot -11.6271 -3.64581
ltoes 4.99233
1366
root 11.3379 15.7421 -3.07571 31.8123 -57.2959 6.23993
lowerback 39.4237 -0.277236 9.32332
upperback 2.89889 3.53264 1.1356
thorax -15.6378 0.806888 -5.21654
lowerneck -5.32544 6.08809 6.17231
upperneck -22.3685 3.50552 -27.2111
head -4.77161 2.70875 -10.2215
rclavicle -1.52667e-013 -6.75868e-014
rhumerus 29.1158 -4.83467 -80.1141
rradius 54.9204
rwrist 22.4509
rhand -61.2408 22.3866
rfingers 7.12502
rthumb -33.3323 -4.54294
lclavicle -1.52667e-013 -6.75868e-014
lhumerus -19.3088 1.96083 89.9343
lradius 84.8769
lwrist -9.70393
lhand -51.4821 -32.0836
lfingers 7.12502
lthumb -24.011 -3.56543
rfemur -78.513 -9.83609 28.0763
rtibia 56.2767
rfoot -17.3339 -8.88616
rtoes 13.275
lfemur -68.6428 3.06618 -28.9074
ltibia 44.2236
lfoot -11.6786 -3.61456
ltoes 4.94241
1367
root 11.3405 15.7263 -3.07808 32.012 -57.2178 6.29997
lowerback 39.3317 -0.267117 9.41618
upperback 2.91524 3.57871 1.16624
thorax -15.5728 0.825926 -5.24858
lowerneck -5.33894 6.01182 6.10781
upperneck -22.3375 3.41551 -27.1139
head -4.78417 2.66121 -10.1733
rclavicle -9.06458e-014 8.98507e-014
rhumerus 29.3469 -4.79404 -79.946
rradius 54.7493
rwrist 22.4717
rhand -61.2035 22.502
rfingers 7.12502
rthumb -33.2968 -4.43514
lclavicle -9.06458e-014 8.98507e-014
lhumerus -19.6038 1.92775 89.9064
lradius 85.0339
lwrist -9.74751
lhand -51.6478 -32.1174
lfingers 7.12502
lthumb -24.1699 -3.62018
rfemur -78.9754 -9.91974 28.1939
rtibia 56.5148
rfoot -17.3544 -8.81961
rtoes 13.2695
lfemur -69.0807 2.91681 -28.8961
ltibia 44.4756
lfoot -11.7234 -3.58686
ltoes 4.88533
1368
root 11.3432 15.7097 -3.08023 32.2106 -57.1417 6.38588
lowerback 39.2086 -0.2563 9.50371
upperback 2.93017 3.61933 1.19086
thorax -15.4988 0.843803 -5.2817
lowerneck -5.37051 5.93249 6.03566
upperneck -22.2864 3.32783 -26.9997
head -4.78779 2.61219 -10.115
rclavicle 2.54444e-014 -8.11041e-014
rhumerus 29.5748 -4.76456 -79.7934
rradius 54.5751
rwrist 22.507
rhand -61.2001 22.6627
rfingers 7.12502
rthumb -33.2935 -4.27514
lclavicle 2.54444e-014 -8.11041e-014
lhumerus -19.9046 1.91654 89.8762
lradius 85.1922
lwrist -9.7933
lhand -51.8111 -32.1817
lfingers 7.12502
lthumb -24.3264 -3.70546
rfemur -79.4693 -9.99911 28.2941
rtibia 56.7634
rfoot -17.3787 -8.76778
rtoes 13.2446
lfemur -69.5434 2.76106 -28.9045
ltibia 44.7291
lfoot -11.7607 -3.56358
ltoes 4.84846
1369
root 11.3455 15.6932 -3.08223 32.3862 -57.0746 6.49942
lowerback 39.0802 -0.242644 9.57841
upperback 2.94698 3.65601 1.2092
thorax -15.4216 0.86108 -5.31324
lowerneck -5.41297 5.85103 5.97013
upperneck -22.2227 3.23919 -26.8881
head -4.78512 2.56087 -10.0578
rclavicle -1.43125e-014 4.69132e-014
rhumerus 29.8053 -4.74549 -79.6542
rradius 54.4
rwrist 22.5434
rhand -61.2184 22.8851
rfingers 7.12502
rthumb -33.3109 -4.04894
lclavicle -1.43125e-014 4.69132e-014
lhumerus -20.2044 1.92491 89.8421
lradius 85.3453
lwrist -9.84515
lhand -51.9999 -32.2643
lfingers 7.12502
lthumb -24.5074 -3.81244
rfemur -79.9638 -10.0704 28.367
rtibia 57.0143
rfoot -17.4096 -8.73193
rtoes 13.2008
lfemur -70.001 2.60724 -28.9335
ltibia 44.977
lfoot -11.7935 -3.54589
ltoes 4.85297
1370
root 11.347 15.677 -3.08425 32.5338 -57.0238 6.6261
lowerback 38.9705 -0.22191 9.63342
upperback 2.96852 3.69364 1.22428
thorax -15.3467 0.879749 -5.33873
lowerneck -5.47032 5.7691 5.90719
upperneck -22.1474 3.15141 -26.7809
head -4.77549 2.50831 -10.0013
rclavicle -7.4743e-014 8.74653e-015
rhumerus 30.0432 -4.73278 -79.5274
rradius 54.2279
rwrist 22.561
rhand -61.2067 23.1667
rfingers 7.12502
rthumb -33.2998 -3.76979
lclavicle -7.4743e-014 8.74653e-015
lhumerus -20.4999 1.95212 89.8049
lradius 85.495
lwrist -9.90184
lhand -52.2048 -32.3382
lfingers 7.12502
lthumb -24.7038 -3.91311
rfemur -80.4349 -10.1334 28.4229
rtibia 57.2614
rfoot -17.4469 -8.70427
rtoes 13.1241
lfemur -70.432 2.46933 -28.9759
ltibia 45.2168
lfoot -11.8272 -3.53533
ltoes 4.90673
1371
root 11.3478 15.6617 -3.08622 32.6642 -56.9836 6.75087
lowerback 38.8781 -0.197091 9.67713
upperback 2.99943 3.73205 1.24064
thorax -15.2676 0.899753 -5.35707
lowerneck -5.52038 5.68949 5.86561
upperneck -22.0849 3.05966 -26.703
head -4.76941 2.45477 -9.96114
rclavicle -1.63799e-013 -6.91771e-014
rhumerus 30.298 -4.7158 -79.4021
rradius 54.0501
rwrist 22.5717
rhand -61.1849 23.4602
rfingers 7.12502
rthumb -33.2791 -3.4807
lclavicle -1.63799e-013 -6.91771e-014
lhumerus -20.7831 2.00313 89.7658
lradius 85.6361
lwrist -9.96362
lhand -52.4237 -32.4046
lfingers 7.12502
lthumb -24.9136 -4.00833
rfemur -80.8737 -10.1866 28.4685
rtibia 57.4966
rfoot -17.4915 -8.68604
rtoes 13.0134
lfemur -70.8322 2.34715 -29.0207
ltibia 45.4444
lfoot -11.8602 -3.53262
ltoes 5.00928
